<svg xmlns="http://www.w3.org/2000/svg" viewBox="0 0 200 200" fill="none">
  <rect width="200" height="200" fill="#f3f4f6"/>
  <g transform="translate(100, 100)">
    <path d="M -40 -50 L -50 -70 L -30 -60 Z" fill="#9ca3af"/>
    <path d="M 40 -50 L 50 -70 L 30 -60 Z" fill="#9ca3af"/>
    <circle cx="0" cy="-30" r="35" fill="#9ca3af"/>
    <ellipse cx="0" cy="10" rx="30" ry="40" fill="#9ca3af"/>
    <circle cx="-12" cy="-35" r="4" fill="#374151"/>
    <circle cx="12" cy="-35" r="4" fill="#374151"/>
    <path d="M 0 -25 L -3 -20 L 3 -20 Z" fill="#374151"/>
    <path d="M 0 -20 Q -5 -15 -8 -18 M 0 -20 Q 5 -15 8 -18" stroke="#374151" stroke-width="1.5" fill="none"/>
    <line x1="-35" y1="-28" x2="-50" y2="-30" stroke="#374151" stroke-width="1"/>
    <line x1="-35" y1="-25" x2="-50" y2="-25" stroke="#374151" stroke-width="1"/>
    <line x1="-35" y1="-22" x2="-50" y2="-20" stroke="#374151" stroke-width="1"/>
    <line x1="35" y1="-28" x2="50" y2="-30" stroke="#374151" stroke-width="1"/>
    <line x1="35" y1="-25" x2="50" y2="-25" stroke="#374151" stroke-width="1"/>
    <line x1="35" y1="-22" x2="50" y2="-20" stroke="#374151" stroke-width="1"/>
  </g>
  <text x="100" y="175" text-anchor="middle" font-family="Arial, sans-serif" font-size="14" fill="#6b7280">No Image</text>
</svg>
